<svg id="visual" viewBox="0 0 450 900" width="450" height="900" xmlns="http://www.w3.org/2000/svg" xmlns:xlink="http://www.w3.org/1999/xlink" version="1.1"><path d="M0 775L15 769.5C30 764 60 753 90 751.8C120 750.7 150 759.3 180 767.3C210 775.3 240 782.7 270 778.7C300 774.7 330 759.3 360 757.8C390 756.3 420 768.7 435 774.8L450 781L450 901L435 901C420 901 390 901 360 901C330 901 300 901 270 901C240 901 210 901 180 901C150 901 120 901 90 901C60 901 30 901 15 901L0 901Z" fill="#FF9B50" stroke-linecap="round" stroke-linejoin="miter"></path></svg>